<?xml version="1.0" encoding="UTF-8" standalone="no"?>
<!-- Created with Inkscape (http://www.inkscape.org/) -->

<svg
   xmlns:dc="http://purl.org/dc/elements/1.1/"
   xmlns:cc="http://creativecommons.org/ns#"
   xmlns:rdf="http://www.w3.org/1999/02/22-rdf-syntax-ns#"
   xmlns:svg="http://www.w3.org/2000/svg"
   xmlns="http://www.w3.org/2000/svg"
   xmlns:sodipodi="http://sodipodi.sourceforge.net/DTD/sodipodi-0.dtd"
   xmlns:inkscape="http://www.inkscape.org/namespaces/inkscape"
   version="1.1"
   id="svg29"
   xml:space="preserve"
   width="237.69333"
   height="413.04001"
   viewBox="0 0 237.69333 413.04001"
   sodipodi:docname="footerlogo.svg"
   inkscape:version="0.92.3 (2405546, 2018-03-11)"><metadata
     id="metadata35"><rdf:RDF><cc:Work
         rdf:about=""><dc:format>image/svg+xml</dc:format><dc:type
           rdf:resource="http://purl.org/dc/dcmitype/StillImage" /><dc:title></dc:title></cc:Work></rdf:RDF></metadata><defs
     id="defs33" /><sodipodi:namedview
     pagecolor="#ffffff"
     bordercolor="#666666"
     borderopacity="1"
     objecttolerance="10"
     gridtolerance="10"
     guidetolerance="10"
     inkscape:pageopacity="0"
     inkscape:pageshadow="2"
     inkscape:window-width="1920"
     inkscape:window-height="1053"
     id="namedview31"
     showgrid="false"
     inkscape:zoom="2.0869649"
     inkscape:cx="118.84666"
     inkscape:cy="206.52"
     inkscape:window-x="0"
     inkscape:window-y="27"
     inkscape:window-maximized="1"
     inkscape:current-layer="g37" /><g
     id="g37"
     inkscape:groupmode="layer"
     inkscape:label="ink_ext_XXXXXX"
     transform="matrix(1.3333333,0,0,-1.3333333,0,413.04)"><g
       id="g39"
       transform="scale(0.1)"><path
         d="m 195.84,490.32 c 12.242,-28.07 23.762,-58.32 41.758,-88.558 18.004,-31.684 42.48,-64.071 64.082,-93.59 -97.918,15.84 -146.16,37.437 -146.16,100.066 0,46.094 30.238,72.012 40.32,82.082 z m 1473.12,203.762 c 4.33,23.758 7.92,51.84 7.92,75.598 0,32.402 -5.76,66.242 -11.51,98.652 15.83,-2.172 23.75,-4.32 29.51,-8.652 22.32,-10.078 48.24,-37.43 48.24,-61.918 0,-25.91 -25.92,-64.082 -41.76,-79.922 -10.08,-7.918 -20.16,-15.84 -32.4,-23.758 z M 771.84,825.84 c 21.598,10.082 48.238,15.851 72,22.332 43.918,10.066 87.836,20.16 129.601,25.91 -9.363,-24.48 -21.601,-46.082 -31.687,-68.402 -12.227,-23.75 -22.316,-47.508 -31.676,-72 -6.48,-13.68 -44.64,-90 -110.16,-137.52 -28.078,-20.148 -50.398,-25.91 -64.078,-25.91 -33.844,0 -72,23.762 -97.918,43.91 -51.844,41.762 -79.926,100.09 -90,119.52 21.598,12.242 46.078,24.492 67.68,32.41 17.996,7.922 35.996,13.68 56.156,20.16 l -23.762,-86.41 c -2.156,-3.59 -7.918,-21.602 3.602,-28.078 2.164,0 10.082,-1.442 10.082,-1.442 12.242,0 18,9.36 20.16,19.45 l 35.996,112.312 54.004,23.758 z M 1027.45,882 c 84.22,18 164.15,25.922 248.38,25.922 38.17,-72 49.69,-133.91 49.69,-167.75 0,-74.16 -33.85,-132.481 -46.08,-154.082 -1.45,-4.328 -15.84,-25.918 -33.84,-25.918 -20.16,0 -39.6,10.078 -57.61,20.148 -22.31,11.532 -46.07,23.762 -66.24,33.84 -48.23,28.09 -125.992,79.922 -167.75,111.61 13.68,35.992 33.836,71.992 49.68,107.992 l 69.84,-115.922 c 6.48,-10.078 7.92,-15.84 22.31,-18 18,2.16 21.62,15.84 21.62,20.16 0,7.922 -1.45,10.078 -7.93,21.609 L 1027.45,882 Z M 227.52,525.609 C 309.602,596.16 411.84,663.84 507.598,712.082 571.68,612 617.758,568.09 671.758,545.77 c 31.68,-11.52 51.84,-13.688 67.68,-13.688 58.32,0 88.558,31.68 126,67.688 26.64,25.91 44.64,56.152 66.238,86.39 22.324,-15.84 46.082,-30.238 68.394,-46.082 31.68,-22.316 65.53,-48.226 101.53,-66.238 25.91,-13.668 51.84,-23.762 78.47,-33.84 18.01,-7.918 47.52,-22.309 67.69,-22.309 30.23,0 46.07,12.231 69.83,56.149 32.41,60.492 50.4,115.93 50.4,177.851 0,46.071 -12.23,66.231 -14.39,76.309 -5.76,13.691 -10.08,31.68 -15.84,48.25 -4.32,9.359 -10.08,19.43 -13.68,29.512 21.6,4.316 45.36,6.488 69.84,6.488 21.6,0 43.92,0 65.52,-2.172 28.07,-2.156 53.99,-2.156 80.63,-5.746 21.6,-2.16 43.93,-6.492 67.69,-12.25 20.16,-42.48 20.16,-58.32 23.76,-82.082 2.16,-22.309 4.31,-43.91 4.31,-66.238 -2.15,-31.68 -5.76,-64.082 -12.23,-95.762 -5.76,-32.391 -11.52,-64.07 -20.17,-94.32 -7.91,-29.52 -17.99,-59.75 -27.35,-87.84 -12.25,-23.758 -24.48,-49.68 -38.16,-72 -14.4,-23.762 -30.24,-46.078 -46.08,-65.508 -43.92,-62.652 -56.16,-72.004 -112.32,-122.41 -18,-15.844 -36,-31.672 -59.76,-48.231 C 1297.44,144.012 1270.07,128.172 1242,112.332 1180.07,79.9219 1126.08,59.7695 1023.83,46.0898 989.996,41.7617 954,40.3203 919.438,40.3203 c -209.52,0 -365.762,93.6097 -423.36,133.9297 -24.48,18 -46.078,37.441 -70.558,57.602 -15.84,14.398 -33.84,28.07 -47.524,43.918 -84.234,88.562 -138.234,222.468 -150.476,249.839 z m -29.524,362.153 21.606,-72 33.836,112.328 42.48,21.59 -36,-133.918 L 391.68,763.93 349.918,740.172 234,779.77 l 25.918,-97.918 -38.16,-23.762 -59.762,208.07 36,21.602 z m 229.684,38.16 -13.68,54 53.996,28.078 c 5.766,2.17 10.086,2.17 11.524,2.17 16.558,0 24.48,-16.568 25.918,-28.088 0,-18 -9.36,-23.75 -23.758,-32.402 l -54,-23.758 z m -61.922,66.25 97.918,49.678 c 2.164,0 15.844,5.76 28.082,5.76 4.32,0 15.84,-1.45 25.922,-7.93 12.238,-7.92 22.32,-13.67 22.32,-51.84 0,-13.68 0,-18 -10.082,-38.16 15.84,-5.75 21.602,-7.918 33.844,-36 13.679,-35.989 10.078,-35.989 30.238,-54 l -36.004,-15.84 c -16.555,7.922 -16.555,15.84 -28.078,46.082 -7.922,23.758 -18,28.078 -30.238,28.078 -3.602,0 -7.922,0 -12.239,-2.16 l -51.839,-23.758 24.476,-92.16 -38.16,-17.992 -56.16,210.242 z M 684,1098 c 69.84,4.33 73.441,-90 73.441,-95.75 0,-30.25 -11.523,-43.918 -23.765,-52.57 -15.84,-10.078 -23.758,-11.508 -35.996,-11.508 -21.602,0 -33.84,7.918 -46.082,23.758 -23.762,30.242 -23.762,66.24 -23.762,72 0,48.24 38.164,61.91 56.164,64.07 z m 11.52,33.85 c 6.476,0 20.16,0 38.156,-5.76 40.324,-18 66.242,-72.01 66.242,-118.09 0,-22.32 -4.316,-33.84 -7.922,-43.918 -16.558,-35.992 -60.476,-61.91 -97.918,-61.91 -18,0 -26.637,3.59 -32.398,5.75 -51.84,18 -75.602,67.687 -75.602,115.918 0,92.17 79.922,108.01 109.442,108.01 z m 511.93,66.24 c 66.23,5.75 71.99,-76.33 71.99,-84.25 0,-31.67 -18,-74.16 -57.6,-74.16 -36.01,0 -72,20.16 -72,88.56 0,29.52 20.16,67.68 57.61,69.85 z m -189.37,-151.93 -24.482,149.76 38.152,7.92 30.25,-205.918 -50.4,-10.082 -121.682,133.92 28.078,-151.92 -38.156,-7.91 -38.16,208.08 46.078,10.07 130.322,-133.92 z m 533.52,118.08 -41.76,1.44 c -4.32,14.4 -10.08,34.57 -50.4,34.57 -7.92,0 -39.6,-2.16 -39.6,-28.09 0,-10.07 3.6,-14.4 5.76,-14.4 10.08,-7.92 40.31,-15.83 69.84,-29.52 20.16,-10.07 26.64,-12.23 36,-20.15 8.63,-5.76 22.32,-18.01 22.32,-42.48 0,-7.92 0,-19.45 -10.08,-33.85 -12.24,-18 -36,-29.51 -82.08,-29.51 -7.92,0 -31.68,0 -59.76,18 -7.92,5.76 -15.84,13.68 -18.01,15.84 -7.92,11.52 -7.92,31.67 -7.92,33.83 h 41.77 c 12.24,-30.24 18,-35.99 56.15,-35.99 25.93,0 36.01,13.68 38.17,25.91 -2.16,12.24 -10.08,22.33 -12.24,23.76 -15.84,12.24 -49.69,18.73 -87.84,34.57 -6.48,1.43 -33.84,11.51 -33.84,53.99 0,13.69 1.44,21.61 9.36,31.68 16.56,18.01 40.32,25.93 70.55,25.93 10.09,0 65.53,0 85.69,-38.16 7.92,-11.53 7.92,-19.45 7.92,-27.37 z m -345.6,67.69 c 103.68,7.91 113.76,-97.92 113.76,-118.09 0,-59.76 -36,-105.84 -97.92,-105.84 -51.84,0 -76.32,20.17 -90,38.16 -14.39,19.45 -23.76,43.92 -23.76,82.08 0,11.53 5.75,95.77 97.92,103.69 z m -650.16,-5.77 c 21.601,10.09 46.078,18.01 69.84,25.93 28.082,7.92 48.242,15.84 58.32,15.84 15.84,0 36,-5.77 36,-12.25 0,-7.92 -20.16,-11.51 -36,-25.91 -14.398,-15.84 -22.32,-39.6 -42.48,-54 -10.079,-5.76 -19.442,-7.92 -25.918,-7.92 -41.762,0 -51.84,28.07 -59.762,58.31 z M 1727.28,885.609 c -83.52,48.231 -159.84,64.071 -315.36,64.071 -87.84,0 -184.33,-1.442 -277.92,-11.508 -68.4,-6.481 -136.086,-18 -200.168,-30.25 C 775.438,877.691 595.438,825.84 365.758,681.852 287.996,632.172 234,591.852 181.441,540 159.84,519.84 141.84,499.68 113.762,445.68 100.078,517.691 82.082,588.238 65.5195,660.25 61.918,681.852 55.4414,702 51.8398,722.172 c -5.7617,23.75 -10.082,46.066 -10.082,67.668 0,43.922 23.7617,90 110.1602,151.922 47.52,36 92.16,61.918 139.68,89.998 51.84,28.08 108.004,56.16 164.16,79.93 31.683,14.4 67.68,25.91 102.238,38.15 28.082,-12.24 46.082,-17.99 61.922,-17.99 29.52,0 54.004,25.91 92.16,69.84 41.762,14.4 85.68,28.08 129.602,38.15 68.398,15.84 136.078,23.76 203.76,32.41 84.24,11.52 168.48,21.59 250.56,21.59 71.99,0 139.68,-5.75 209.52,-15.84 25.92,-4.31 102.24,-10.07 136.08,-87.83 7.92,-16.57 12.23,-30.24 15.84,-46.08 l 69.84,-258.481 z M 509.762,1185.85 c -22.321,-10.08 -48.242,-20.17 -72.004,-31.68 -48.238,-22.32 -92.156,-43.92 -138.238,-68.41 -13.68,-7.92 -29.52,-15.84 -43.918,-23.76 10.078,21.6 17.996,43.92 30.238,66.24 13.68,23.77 28.082,43.92 43.922,65.53 58.32,84.23 79.918,97.92 123.836,130.32 15.84,-43.92 36.004,-92.16 56.164,-138.24 z m 671.758,246.24 c 84.24,-30.24 104.39,-43.92 176.4,-97.92 -58.32,1.44 -115.92,1.44 -176.4,0 v 97.92 z m -437.758,38.16 c 33.836,-28.09 58.316,-44.64 58.316,-62.65 0,-17.99 -16.558,-45.35 -18,-47.52 -6.48,-12.23 -10.078,-22.32 -14.398,-32.39 -5.758,-11.53 -12.239,-25.93 -18,-37.44 -31.68,11.51 -41.762,19.43 -59.762,19.43 -12.238,0 -15.84,0 -36,-5.75 -6.48,20.16 -15.84,41.75 -22.32,61.92 -5.762,20.16 -10.078,40.31 -13.68,61.91 21.602,10.09 46.082,20.17 69.844,28.09 17.996,5.76 35.996,10.07 54,14.4 z m -69.84,91.44 c 13.676,-18 28.074,-37.45 41.758,-55.44 -25.918,-6.48 -54,-14.4 -79.922,-24.49 12.238,28.08 23.762,54.01 38.164,79.93 z m 291.601,637.92 c -18.007,88.55 -35.996,182.16 -35.996,276.48 0,39.59 4.305,77.75 7.918,118.08 -7.918,15.84 -15.847,28.08 -23.769,64.07 0,15.84 0,19.45 4.32,19.45 3.602,0 5.766,-3.61 15.836,-5.76 10.09,-4.32 23.762,-5.77 28.086,-5.77 29.523,0 56.162,37.45 64.082,61.93 7.92,20.15 5.75,43.91 13.68,43.91 5.76,0 14.4,-12.23 14.4,-12.23 15.84,-18 15.84,-33.84 15.84,-46.09 0,-37.43 -12.24,-59.75 -51.84,-115.91 7.92,-51.84 23.76,-103.69 31.68,-157.68 4.32,-28.09 5.76,-56.16 5.76,-84.24 0,-28.08 -1.44,-54 -3.6,-82.08 0,-20.16 -2.16,-39.6 -2.16,-57.61 -2.17,-18 -5.76,-34.56 -5.76,-52.55 0,-21.61 5.76,-43.92 10.08,-63.36 3.6,-20.17 5.76,-38.16 5.76,-58.32 0,-40.32 -2.16,-64.08 -22.33,-138.24 18.01,-51.84 42.49,-97.92 66.25,-145.45 23.75,-52.56 48.24,-88.56 48.24,-144 0,-40.31 -6.48,-78.47 -10.08,-118.08 -4.33,-56.15 -4.33,-110.15 -2.16,-166.32 -121.68,-12.24 -229.682,-31.67 -347.764,-56.15 7.922,22.32 15.84,43.91 25.926,68.4 15.84,33.83 28.078,54 28.078,72 0,21.59 -22.324,39.6 -25.922,43.91 -10.078,10.09 -20.16,15.84 -28.082,25.93 -14.398,12.23 -25.918,25.91 -38.156,40.31 -22.32,21.61 -40.32,43.93 -58.32,67.69 -7.922,7.91 -15.84,15.83 -23.762,15.83 -5.758,0 -13.676,-5.75 -25.918,-23.75 -41.762,-84.24 -64.082,-118.09 -64.082,-167.76 0,-36 10.082,-64.09 30.238,-128.16 -28.074,-10.09 -56.156,-18.01 -86.394,-28.08 -25.922,51.84 -29.524,92.15 -29.524,118.08 0,47.52 23.762,123.84 23.762,126 10.078,31.68 15.84,64.08 25.918,95.75 l 23.762,84.25 c 7.921,29.51 12.238,38.16 40.32,47.52 36,14.4 72,26.63 107.996,38.16 21.602,10.07 31.684,12.24 21.602,51.84 -7.918,26.63 -17.997,74.16 -47.52,88.56 -12.238,3.6 -24.477,5.75 -38.156,7.92 -33.844,7.92 -85.68,20.15 -108.004,51.84 -12.238,20.15 -12.238,43.91 -12.238,54 0,38.16 10.078,61.92 40.32,79.91 18,12.25 25.922,14.4 33.84,14.4 22.32,0 35.996,-28.07 56.16,-34.55 15.84,-3.61 36,10.08 51.84,10.08 15.84,0 28.082,-13.69 41.761,-21.61 17.997,-12.23 35.997,-16.55 35.997,-25.91 0,-4.32 0,-4.32 -1.442,-8.65 -2.156,-23.76 -7.918,-47.52 -7.918,-69.84 0,-33.83 15.84,-51.84 41.762,-75.6 20.16,-17.99 36,-32.39 48.238,-32.39 19.442,0 21.602,20.16 21.602,22.32 l 69.843,317.52 z m 24.473,774 c 25.914,2.15 103.684,0 139.684,-75.61 12.24,-28.08 12.24,-54 12.24,-66.23 0,-38.16 -7.92,-57.6 -25.92,-77.77 -4.33,-5.76 -10.09,-10.07 -12.24,-10.07 -5.77,0 -10.08,18 -15.84,28.07 -12.24,21.61 -32.4,46.09 -54,46.09 -25.93,0 -32.4,-54.01 -36.006,-69.85 -6.473,-24.47 -15.84,-46.08 -43.914,-46.08 -28.086,0 -43.922,23.77 -50.402,31.68 -36,41.77 -39.598,76.33 -39.598,97.93 0,82.07 57.598,120.23 82.078,130.32 13.684,5.75 29.524,10.07 43.918,11.52 z M 64.0781,488.172 C 71.9961,454.332 79.918,408.238 97.918,373.68 145.438,290.172 255.602,272.172 339.84,257.762 377.996,223.93 414,187.922 455.758,156.25 489.602,130.32 525.602,105.84 565.918,85.6797 613.438,61.9297 756,0 939.605,0 1242,0 1433.52,200.172 1459.44,228.238 c 86.39,87.852 146.16,190.094 182.16,307.442 7.92,28.082 15.84,58.332 20.15,84.242 12.97,15.848 29.53,31.687 45.36,48.25 48.26,47.508 75.61,73.437 75.61,147.59 0,54.008 -13.68,82.078 -39.6,176.41 -14.39,55.438 -46.07,185.758 -77.75,241.918 -5.77,11.52 -17.29,33.84 -49.69,51.83 -41.76,25.93 -138.24,36.01 -183.6,40.33 -20.16,17.99 -40.33,36 -62.64,51.84 -19.44,15.84 -43.92,29.51 -65.52,41.75 -38.16,22.32 -78.48,41.77 -118.09,61.92 2.16,22.33 2.16,46.09 3.61,69.85 2.16,20.15 6.47,44.64 6.47,66.24 0,38.16 -6.47,46.08 -30.23,102.23 -13.68,33.85 -30.24,67.68 -46.08,101.53 -13.69,26.63 -25.92,52.56 -36,80.64 7.92,45.35 15.84,91.44 15.84,137.52 0,22.32 -1.45,43.92 -5.76,66.24 -3.61,25.92 -10.08,51.83 -10.08,77.76 -2.16,22.32 4.32,43.92 6.47,64.07 3.61,32.41 5.76,64.09 5.76,95.77 0,38.16 -4.31,76.31 -10.07,114.48 -7.92,41.75 -18,83.51 -25.92,125.99 7.92,15.84 15.84,29.53 23.76,43.92 10.08,20.16 15.84,38.16 24.48,57.61 43.92,48.23 71.99,84.23 71.99,150.48 0,100.07 -64.07,146.16 -100.07,162 -32.41,15.84 -60.47,18 -74.17,18 -97.908,-2.16 -177.834,-79.93 -177.834,-180 0,-54 18.004,-87.85 28.082,-104.4 3.602,-7.92 9.36,-15.84 15.84,-23.76 3.602,-61.92 0,-58.32 28.082,-115.93 -4.32,-46.07 -7.922,-90 -7.922,-136.07 0,-84.24 13.68,-172.09 33.836,-254.16 L 864,1939.68 c 0,-1.44 -6.48,-19.43 -10.078,-19.43 -7.922,0 -22.324,21.6 -28.082,41.76 -2.164,5.75 -4.32,12.23 -4.32,15.84 0,28.07 14.398,54 16.562,84.24 0,13.68 -6.484,20.16 -12.242,21.6 -25.922,16.56 -51.84,7.92 -84.242,58.31 -10.078,-4.31 -21.598,-5.75 -33.84,-10.07 -15.84,-4.32 -17.996,-7.93 -25.918,-7.93 -12.238,0 -18,5.77 -38.164,20.17 -5.754,3.6 -20.156,11.51 -38.156,11.51 -13.68,0 -31.68,-3.59 -57.598,-23.75 -51.844,-40.32 -56.164,-90 -56.164,-113.76 0,-54 25.922,-88.56 72.004,-112.32 23.758,-12.25 48.234,-15.84 58.316,-18 31.684,-5.76 51.844,-5.76 67.684,-36 5.758,-13.68 7.918,-25.93 7.918,-31.68 0,-24.49 -21.602,-25.93 -43.918,-32.41 C 630,1779.84 576,1761.85 555.84,1740.25 540,1722.25 525.602,1679.77 509.762,1623.6 487.441,1543.69 467.996,1460.17 447.836,1380.25 277.922,1249.93 223.922,1103.76 191.52,1023.84 187.922,1021.69 67.6797,941.762 21.5977,866.16 1.44141,832.332 0,802.082 0,787.691 0,761.762 5.75781,738 11.5195,712.082 21.5977,670.32 29.5234,632.172 39.5977,589.68 L 64.0781,488.172 v 0"
         style="fill:#254aa5;fill-opacity:1;fill-rule:evenodd;stroke:none"
         id="path41"
         inkscape:connector-curvature="0" /><path
         d="m 1330.06,3007.69 h 12.04 c 13.7,0 25.32,4.98 25.32,17.85 0,9.13 -6.63,18.26 -25.32,18.26 -5.4,0 -9.14,-0.41 -12.04,-0.83 z m 0,-57.69 h -16.6 v 104.18 c 8.71,1.24 17.02,2.49 29.47,2.49 15.78,0 26.16,-3.32 32.38,-7.89 6.23,-4.57 9.54,-11.62 9.54,-21.58 0,-13.7 -9.12,-22 -20.33,-25.32 v -0.83 c 9.14,-1.66 15.36,-9.96 17.43,-25.32 2.5,-16.19 4.98,-22.42 6.64,-25.73 h -17.43 c -2.49,3.31 -4.98,12.86 -7.05,26.56 -2.5,13.28 -9.13,18.26 -22.43,18.26 h -11.62 z m 17.44,133.23 c -41.09,0 -74.71,-35.28 -74.71,-78.86 0,-44.42 33.62,-79.28 75.13,-79.28 41.51,-0.41 74.71,34.86 74.71,78.86 0,44 -33.2,79.28 -74.71,79.28 z m 0.42,14.53 c 51.05,0 91.72,-41.5 91.72,-93.39 0,-52.72 -40.67,-93.81 -92.14,-93.81 -51.06,0 -92.56,41.09 -92.56,93.81 0,51.89 41.5,93.39 92.56,93.39 h 0.42"
         style="fill:#2744a0;fill-opacity:1;fill-rule:nonzero;stroke:none"
         id="path43"
         inkscape:connector-curvature="0" /></g></g></svg>