<?xml version="1.0" encoding="UTF-8" standalone="no"?>
<!-- Created with Inkscape (http://www.inkscape.org/) -->

<svg
   xmlns:dc="http://purl.org/dc/elements/1.1/"
   xmlns:cc="http://creativecommons.org/ns#"
   xmlns:rdf="http://www.w3.org/1999/02/22-rdf-syntax-ns#"
   xmlns:svg="http://www.w3.org/2000/svg"
   xmlns="http://www.w3.org/2000/svg"
   xmlns:sodipodi="http://sodipodi.sourceforge.net/DTD/sodipodi-0.dtd"
   xmlns:inkscape="http://www.inkscape.org/namespaces/inkscape"
   version="1.1"
   id="svg29"
   xml:space="preserve"
   width="498.56"
   height="105.06667"
   viewBox="0 0 498.56 105.06667"
   sodipodi:docname="KRONOS-Logo.svg"
   inkscape:version="0.92.3 (2405546, 2018-03-11)"><metadata
     id="metadata35"><rdf:RDF><cc:Work
         rdf:about=""><dc:format>image/svg+xml</dc:format><dc:type
           rdf:resource="http://purl.org/dc/dcmitype/StillImage" /><dc:title></dc:title></cc:Work></rdf:RDF></metadata><defs
     id="defs33" /><sodipodi:namedview
     pagecolor="#ffffff"
     bordercolor="#666666"
     borderopacity="1"
     objecttolerance="10"
     gridtolerance="10"
     guidetolerance="10"
     inkscape:pageopacity="0"
     inkscape:pageshadow="2"
     inkscape:window-width="1920"
     inkscape:window-height="1053"
     id="namedview31"
     showgrid="false"
     inkscape:zoom="2.453656"
     inkscape:cx="223.96965"
     inkscape:cy="21.387485"
     inkscape:window-x="0"
     inkscape:window-y="27"
     inkscape:window-maximized="1"
     inkscape:current-layer="layer1" /><g
     inkscape:groupmode="layer"
     id="layer1"
     inkscape:label="Hintergrund"><rect
       style="fill:#ffffff;fill-opacity:1"
       id="rect884"
       width="550.60693"
       height="144.68205"
       x="-24.453306"
       y="-20.05274" /></g><g
     id="g37"
     inkscape:groupmode="layer"
     inkscape:label="ink_ext_XXXXXX"
     transform="matrix(1.3333333,0,0,-1.3333333,0,105.06667)"><g
       id="g39"
       transform="scale(0.1)"><path
         d="M 0,14.2383 H 124.391 V 293.262 L 372.34,14.2383 H 542.09 L 230.176,355.496 470.996,641.656 H 331.469 L 124.391,390.164 V 641.656 H 0 v -627.4177 0"
         style="fill:#2744a0;fill-opacity:1;fill-rule:nonzero;stroke:none"
         id="path41"
         inkscape:connector-curvature="0" /><path
         d="M 679.934,391.047 V 550.98 h 175.972 c 30.203,0 57.766,-5.32 75.539,-33.761 10.668,-16.895 11.547,-32.887 11.547,-41.75 0,-16.895 -7.101,-63.11 -56.883,-79.102 -15.113,-4.441 -26.636,-5.32 -42.629,-5.32 H 679.934 Z M 556.395,641.656 V 14.2383 H 678.176 V 290.605 h 171.48 c 19.582,0 39.114,-0.878 56.032,-13.328 19.554,-15.109 19.554,-38.183 20.433,-60.453 l 4.445,-142.156 c 0.879,-35.5742 5.325,-42.6563 16.895,-60.4297 H 1077.2 c -24.88,38.1836 -22.22,39.082 -23.98,83.543 l -3.56,118.1677 c -0.91,18.68 3.56,79.102 -49.805,113.77 -11.527,7.097 -26.636,13.328 -39.992,18.648 6.25,1.809 12.477,4.465 18.7,7.129 8.886,4.445 23.077,13.332 31.107,19.535 50.63,39.989 56.88,87.961 56.88,113.742 0,16.016 -2.68,54.223 -28.46,90.653 -31.11,43.554 -71.098,57.762 -122.637,61.301 -13.328,0.929 -25.781,0.929 -39.109,0.929 H 556.395 v 0"
         style="fill:#2744a0;fill-opacity:1;fill-rule:evenodd;stroke:none"
         id="path43"
         inkscape:connector-curvature="0" /><path
         d="m 1223.63,340.391 c 3.57,79.953 28.47,126.191 48.88,154.632 34.67,47.973 77.29,67.555 136.87,67.555 42.62,0 70.19,-10.691 84.42,-17.82 23.09,-11.551 36.42,-26.637 43.55,-34.645 27.54,-30.203 51.54,-79.078 51.54,-166.187 0,-57.766 -7.1,-118.184 -39.11,-167.949 -10.67,-17.793 -34.64,-52.442 -87.08,-69.305 -24,-8.0118 -43.56,-8.8907 -54.2,-8.8907 -54.23,0 -89.8,23.9767 -105.77,36.4297 -84.42,66.648 -80.85,178.613 -79.1,206.18 z m -130.64,2.656 C 1088.55,244.414 1120.56,140.461 1197,73.7617 1277.83,3.57422 1368.51,0 1405.83,0 c 98.66,0 177.71,29.3555 239.92,109.309 67.53,87.988 71.12,187.527 71.12,225.73 0,142.188 -59.55,220.41 -104.86,257.715 -78.22,64.894 -169.75,63.988 -202.63,63.988 -91.53,0 -141.31,-23.121 -175.96,-44.406 -22.24,-14.262 -43.58,-32.91 -61.3,-52.441 -36.48,-40.872 -55.13,-84.426 -67.58,-137.747 -7.98,-35.546 -10.64,-65.769 -11.55,-79.101 v 0"
         style="fill:#2744a0;fill-opacity:1;fill-rule:evenodd;stroke:none"
         id="path45"
         inkscape:connector-curvature="0" /><path
         d="m 1748.68,14.2383 h 112.87 V 482.551 L 2117.48,14.2383 h 167.09 V 641.656 H 2170.83 V 170.637 l -247.98,471.019 h -174.17 v -627.4177 0"
         style="fill:#2744a0;fill-opacity:1;fill-rule:nonzero;stroke:none"
         id="path47"
         inkscape:connector-curvature="0" /><path
         d="m 2457.08,340.391 c 3.56,79.953 28.44,126.191 48.88,154.632 34.64,47.973 77.34,67.555 136.86,67.555 42.63,0 70.22,-10.691 84.43,-17.82 23.09,-11.551 36.42,-26.637 43.55,-34.645 27.54,-30.203 51.53,-79.078 51.53,-166.187 0,-57.766 -7.1,-118.184 -39.1,-167.949 -10.67,-17.793 -34.67,-52.442 -87.11,-69.305 -23.95,-8.0118 -43.53,-8.8907 -54.18,-8.8907 -54.24,0 -89.79,23.9767 -105.78,36.4297 -84.4,66.648 -80.89,178.613 -79.08,206.18 z m -130.66,2.656 C 2322,244.414 2353.96,140.461 2430.4,73.7617 2511.28,3.57422 2601.92,0 2639.26,0 c 98.63,0 177.73,29.3555 239.94,109.309 67.55,87.988 71.09,187.527 71.09,225.73 0,142.188 -59.54,220.41 -104.88,257.715 -78.17,64.894 -169.73,63.988 -202.59,63.988 -91.55,0 -141.31,-23.121 -175.97,-44.406 -22.22,-14.262 -43.54,-32.91 -61.31,-52.441 -36.45,-40.872 -55.1,-84.426 -67.55,-137.747 -8.01,-35.546 -10.68,-65.769 -11.57,-79.101 v 0"
         style="fill:#2744a0;fill-opacity:1;fill-rule:evenodd;stroke:none"
         id="path49"
         inkscape:connector-curvature="0" /><path
         d="m 2955.47,199.961 c 1.81,-22.227 7.08,-71.953 48,-119.9805 55.07,-65.7422 137.74,-77.28519 219.53,-77.28519 135.94,0 206.15,35.51949 246.11,87.96099 30.24,39.9887 33.79,78.2227 33.79,97.7497 0,22.219 -4.41,66.653 -47.97,106.645 -47.09,42.644 -116.45,64.89 -241.78,109.301 -52.44,18.675 -82.63,31.128 -101.28,49.804 -15.97,15.992 -17.78,30.176 -17.78,39.965 0,27.539 20.41,47.117 42.68,56.859 28.42,12.477 64.84,13.356 72.87,13.356 79.96,0 128.84,-26.66 148.42,-54.223 7.05,-8.863 11.52,-16.871 15.11,-39.113 h 127.05 c -1.73,23.121 -3.54,31.129 -7.96,42.652 -8.03,24.024 -21.36,44.434 -38.26,62.207 -31.1,32.911 -69.3,51.563 -112.84,62.207 -39.11,9.817 -91.55,16.016 -131.52,16.016 -93.33,0 -151.1,-24.879 -183.08,-48.879 -20.41,-16.012 -57.76,-49.754 -58.64,-119.09 0,-42.675 15.97,-70.215 25.78,-84.398 31.1,-42.699 89.75,-68.434 136.82,-86.207 24.92,-9.813 49.75,-18.672 75.56,-27.559 30.2,-10.672 61.3,-22.226 91.53,-32.89 37.32,-13.329 77.29,-28.418 77.29,-74.629 0,-69.317 -86.16,-87.9886 -136.81,-87.9886 -54.23,0 -89.78,17.7736 -107.57,32.0036 -32.89,26.66 -31.98,60.45 -32.89,74.657 l -142.16,0.859 v 0"
         style="fill:#2744a0;fill-opacity:1;fill-rule:nonzero;stroke:none"
         id="path51"
         inkscape:connector-curvature="0" /><path
         d="m 3617.33,687.797 h 13.38 c 15.22,0 28.18,5.543 28.18,19.875 0,10.133 -7.43,20.289 -28.18,20.289 -6,0 -10.15,-0.441 -13.38,-0.906 z m 0,-64.16 h -18.5 v 115.847 c 9.71,1.368 18.94,2.782 32.81,2.782 17.55,0 29.07,-3.688 36.04,-8.789 6.88,-5.028 10.59,-12.914 10.59,-23.973 0,-15.234 -10.15,-24.465 -22.65,-28.176 v -0.926 c 10.2,-1.855 17.09,-11.062 19.43,-28.152 2.75,-17.992 5.49,-24.926 7.34,-28.613 h -19.35 c -2.76,3.687 -5.57,14.285 -7.86,29.566 -2.79,14.746 -10.11,20.266 -24.91,20.266 h -12.94 z m 19.36,148.172 c -45.67,0 -83.08,-39.211 -83.08,-87.696 0,-49.367 37.41,-88.183 83.55,-88.183 46.19,-0.465 83.15,38.816 83.15,87.691 0,48.977 -36.96,88.188 -83.15,88.188 z m 0.47,16.16 c 56.79,0 102.07,-46.168 102.07,-103.856 0,-58.644 -45.28,-104.347 -102.54,-104.347 -56.76,0 -102.93,45.703 -102.93,104.347 0,57.688 46.17,103.856 102.93,103.856 h 0.47"
         style="fill:#2744a0;fill-opacity:1;fill-rule:nonzero;stroke:none"
         id="path53"
         inkscape:connector-curvature="0" /></g></g></svg>